<svg xmlns="http://www.w3.org/2000/svg" xmlns:xlink="http://www.w3.org/1999/xlink" width="500" zoomAndPan="magnify" viewBox="0 0 375 374.999991" height="500" preserveAspectRatio="xMidYMid meet" version="1.2"><defs/><g id="7ddd9db2e7"><g style="fill:#000000;fill-opacity:1;"><g transform="translate(4.501205, 148.061969)"><path style="stroke:none" d="M 5.890625 0 L 5.890625 -137.46875 L 30.640625 -137.46875 L 30.640625 -20.8125 L 47.53125 -20.8125 L 47.53125 0 Z M 5.890625 0 "/></g></g><g style="fill:#000000;fill-opacity:1;"><g transform="translate(50.652114, 148.061969)"><path style="stroke:none" d="M 2.953125 0 L 17.484375 -137.46875 L 51.65625 -137.46875 L 66.375 0 L 41.640625 0 L 40.0625 -20.421875 L 29.265625 -20.421875 L 27.6875 0 Z M 30.828125 -41.234375 L 38.5 -41.234375 L 34.5625 -93.09375 Z M 30.828125 -41.234375 "/></g></g><g style="fill:#000000;fill-opacity:1;"><g transform="translate(115.656226, 148.061969)"><path style="stroke:none" d="M 14.734375 0 L 2.953125 -137.46875 L 27.6875 -137.46875 L 33.578125 -61.46875 L 43.203125 -137.46875 L 56.359375 -137.46875 L 66.1875 -61.46875 L 72.078125 -137.46875 L 96.828125 -137.46875 L 85.03125 0 L 59.5 0 L 49.890625 -61.28125 L 40.265625 0 Z M 14.734375 0 "/></g></g><g style="fill:#000000;fill-opacity:1;"><g transform="translate(211.100352, 148.061969)"><path style="stroke:none" d="M 2.953125 0 L 17.484375 -137.46875 L 51.65625 -137.46875 L 66.375 0 L 41.640625 0 L 40.0625 -20.421875 L 29.265625 -20.421875 L 27.6875 0 Z M 30.828125 -41.234375 L 38.5 -41.234375 L 34.5625 -93.09375 Z M 30.828125 -41.234375 "/></g></g><g style="fill:#000000;fill-opacity:1;"><g transform="translate(276.104472, 148.061969)"><path style="stroke:none" d="M 5.890625 0 L 5.890625 -137.46875 L 28.875 -137.46875 L 38.6875 -76.59375 L 38.6875 -137.46875 L 63.625 -137.46875 L 63.625 0 L 40.265625 0 L 30.640625 -60.875 L 30.640625 0 Z M 5.890625 0 "/></g></g><g style="fill:#000000;fill-opacity:1;"><g transform="translate(364.986461, 147.922826)"><path style="stroke:none" d="M 0.21875 -5.578125 C 0.21875 -4.023438 -0.117188 -2.832031 -0.796875 -2 C -1.472656 -1.164062 -2.5625 -0.609375 -4.0625 -0.328125 L -4.515625 -3.453125 C -3.742188 -3.578125 -3.171875 -3.8125 -2.796875 -4.15625 C -2.429688 -4.5 -2.25 -4.976562 -2.25 -5.59375 C -2.25 -6.21875 -2.457031 -6.691406 -2.875 -7.015625 C -3.289062 -7.335938 -3.890625 -7.5 -4.671875 -7.5 L -12.53125 -7.5 L -12.53125 -4.515625 L -14.984375 -4.515625 L -14.984375 -10.625 L -4.75 -10.625 C -3.1875 -10.625 -1.96875 -10.179688 -1.09375 -9.296875 C -0.21875 -8.410156 0.21875 -7.171875 0.21875 -5.578125 Z M 0.21875 -5.578125 "/></g></g><g style="fill:#000000;fill-opacity:1;"><g transform="translate(364.986461, 119.951187)"><path style="stroke:none" d="M 0.21875 -7.6875 C 0.21875 -5.625 -0.285156 -4.046875 -1.296875 -2.953125 C -2.304688 -1.859375 -3.742188 -1.3125 -5.609375 -1.3125 L -14.984375 -1.3125 L -14.984375 -4.453125 L -5.859375 -4.453125 C -4.671875 -4.453125 -3.769531 -4.734375 -3.15625 -5.296875 C -2.550781 -5.859375 -2.25 -6.6875 -2.25 -7.78125 C -2.25 -8.894531 -2.566406 -9.753906 -3.203125 -10.359375 C -3.847656 -10.960938 -4.769531 -11.265625 -5.96875 -11.265625 L -14.984375 -11.265625 L -14.984375 -14.40625 L -5.78125 -14.40625 C -3.875 -14.40625 -2.394531 -13.816406 -1.34375 -12.640625 C -0.300781 -11.460938 0.21875 -9.8125 0.21875 -7.6875 Z M 0.21875 -7.6875 "/></g></g><g style="fill:#000000;fill-opacity:1;"><g transform="translate(364.986461, 88.36497)"><path style="stroke:none" d="M -7.609375 -14.8125 C -6.054688 -14.8125 -4.703125 -14.507812 -3.546875 -13.90625 C -2.398438 -13.300781 -1.519531 -12.441406 -0.90625 -11.328125 C -0.300781 -10.222656 0 -8.953125 0 -7.515625 L 0 -1.453125 L -14.984375 -1.453125 L -14.984375 -6.875 C -14.984375 -9.40625 -14.347656 -11.359375 -13.078125 -12.734375 C -11.804688 -14.117188 -9.984375 -14.8125 -7.609375 -14.8125 Z M -7.609375 -11.65625 C -9.210938 -11.65625 -10.4375 -11.234375 -11.28125 -10.390625 C -12.132812 -9.554688 -12.5625 -8.363281 -12.5625 -6.8125 L -12.5625 -4.59375 L -2.421875 -4.59375 L -2.421875 -7.25 C -2.421875 -8.601562 -2.882812 -9.675781 -3.8125 -10.46875 C -4.75 -11.257812 -6.015625 -11.65625 -7.609375 -11.65625 Z M -7.609375 -11.65625 "/></g></g><g style="fill:#000000;fill-opacity:1;"><g transform="translate(364.986461, 56.778753)"><path style="stroke:none" d="M -7.5625 -16.03125 C -6 -16.03125 -4.625 -15.71875 -3.4375 -15.09375 C -2.257812 -14.476562 -1.351562 -13.597656 -0.71875 -12.453125 C -0.09375 -11.304688 0.21875 -9.96875 0.21875 -8.4375 C 0.21875 -6.082031 -0.472656 -4.234375 -1.859375 -2.890625 C -3.253906 -1.554688 -5.15625 -0.890625 -7.5625 -0.890625 C -9.96875 -0.890625 -11.84375 -1.554688 -13.1875 -2.890625 C -14.53125 -4.222656 -15.203125 -6.078125 -15.203125 -8.453125 C -15.203125 -10.828125 -14.519531 -12.679688 -13.15625 -14.015625 C -11.800781 -15.359375 -9.9375 -16.03125 -7.5625 -16.03125 Z M -7.5625 -12.828125 C -9.175781 -12.828125 -10.441406 -12.441406 -11.359375 -11.671875 C -12.273438 -10.910156 -12.734375 -9.835938 -12.734375 -8.453125 C -12.734375 -7.046875 -12.28125 -5.957031 -11.375 -5.1875 C -10.46875 -4.425781 -9.195312 -4.046875 -7.5625 -4.046875 C -5.914062 -4.046875 -4.617188 -4.4375 -3.671875 -5.21875 C -2.722656 -6.007812 -2.25 -7.082031 -2.25 -8.4375 C -2.25 -9.84375 -2.707031 -10.925781 -3.625 -11.6875 C -4.550781 -12.445312 -5.863281 -12.828125 -7.5625 -12.828125 Z M -7.5625 -12.828125 "/></g></g><g style="fill:#000000;fill-opacity:1;"><g transform="translate(364.986461, 23.980589)"><path style="stroke:none" d="M 0 -1.453125 L -14.984375 -1.453125 L -14.984375 -4.59375 L -2.421875 -4.59375 L -2.421875 -12.640625 L 0 -12.640625 Z M 0 -1.453125 "/></g></g></g></svg>